<svg xmlns="http://www.w3.org/2000/svg" width="100" height="101"><g fill="none" fill-rule="evenodd" transform="translate(0 .201)"><circle cx="50" cy="50" r="50" fill="#FFF"/><path fill="#0664D8" fill-rule="nonzero" d="m50.193 18.966 27.586 24.52-3.698 1.756.002 23.641a5.255 5.255 0 0 1-5.254 5.255H32.047a5.255 5.255 0 0 1-5.254-5.255l-.002-23.318-4.377-2.078L50 18.966l.106.094.087-.094zm-.097 8.113L30.99 44.203l.005 24.68c0 .508.36.932.84 1.03l.211.021H68.83c.508 0 .931-.36 1.03-.839l.02-.211-.001-24.074-19.782-17.731zm3.412 10.29c3.589 0 5.477.851 5.477.851l-1.772 6.46s-2.431-1.017-5.249-1.017c-4.133 0-4.06 2.146-3.988 2.685.39 2.95 9.836 4.08 10.75 10.987.72 5.435-2.984 8.935-8.605 8.935-6.743 0-10.652-3.473-10.652-3.473l1.155-4.932s3.88 2.516 6.868 2.516c1.955 0 2.584-1.271 2.46-2.2-.509-3.85-8.16-4.02-8.996-10.342-.705-5.32 3.23-10.47 12.552-10.47z"/></g></svg>