<svg width="100" height="100" xmlns="http://www.w3.org/2000/svg"><g fill="none" fill-rule="evenodd"><circle fill="#FFF" cx="50" cy="50" r="50"/><g fill-rule="nonzero"><path d="M23.927 27.599c15.978-18.594 45.61-14.924 56.684 6.803h-26.62c-4.796 0-7.893-.108-11.247 1.656-3.942 2.077-6.915 5.924-7.955 10.442L23.927 27.602v-.003z" fill="#FF5A4C"/><path d="M38.565 50c0 6.302 5.124 11.43 11.424 11.43 6.302 0 11.424-5.128 11.424-11.43s-5.125-11.43-11.424-11.43c-6.302 0-11.424 5.128-11.424 11.43z" fill="#2184FD"/><path d="M54.423 64.962c-6.414 1.905-13.916-.21-18.027-7.305-3.14-5.414-11.43-19.857-15.197-26.423-13.197 20.224-1.821 47.79 22.135 52.494L54.42 64.962h.003z" fill="#40B760"/><path d="M60.599 38.57a15.652 15.652 0 0 1 2.888 19.245c-2.725 4.698-11.424 19.381-15.641 26.491 24.684 1.521 42.682-22.67 34.553-45.739h-21.8v.003z" fill="#FFC828"/></g></g></svg>