<svg width="100" height="77" xmlns="http://www.w3.org/2000/svg"><path d="M4.395 8.057h91.24c2.418 0 4.38-1.805 4.38-4.029 0-2.223-1.962-4.028-4.38-4.028H4.395C1.977 0 .015 1.805.015 4.028c0 2.224 1.962 4.029 4.38 4.029zm91.24 26.178H4.395c-2.418 0-4.38 1.805-4.38 4.029 0 2.223 1.962 4.028 4.38 4.028h91.24c2.418 0 4.38-1.805 4.38-4.028-.012-2.224-1.974-4.029-4.38-4.029zm0 34.15H4.395c-2.418 0-4.38 1.805-4.38 4.028 0 2.224 1.962 4.028 4.38 4.028h91.24c2.418 0 4.38-1.804 4.38-4.028 0-2.223-1.974-4.028-4.38-4.028z" fill="#2184fd" fill-rule="nonzero"/></svg>