<svg width="76" height="76" xmlns="http://www.w3.org/2000/svg"><path d="M74.599 3.873a2.547 2.547 0 0 1 0 3.601L44.075 37.996 74.6 68.524c.921.92.99 2.379.195 3.376l-.195.224-2.46 2.46a2.547 2.547 0 0 1-3.6 0L38.012 44.057 7.49 74.583a2.547 2.547 0 0 1-3.38.198l-.221-.198-2.46-2.46a2.546 2.546 0 0 1 0-3.6l30.524-30.526L1.43 7.474a2.543 2.543 0 0 1-.198-3.378l.198-.223 2.46-2.46a2.546 2.546 0 0 1 3.601 0l30.524 30.523L68.54 1.414a2.547 2.547 0 0 1 3.38-.199l.22.2 2.46 2.458z" fill="#2184fd" fill-rule="nonzero"/></svg>