<svg width="100" height="100" xmlns="http://www.w3.org/2000/svg"><g fill="none" fill-rule="evenodd"><path d="M88 25a7 7 0 0 1 7 7v61a7 7 0 0 1-7 7H12a7 7 0 0 1-7-7V32a7 7 0 0 1 7-7h76zm-1 8H13v59h74V33z" fill="#2184FD" fill-rule="nonzero"/><rect fill="#2184FD" x="27.273" y="45" width="45.455" height="12.5" rx="6.25"/><rect fill="#FFF" width="100" height="35" rx="8.4"/><path d="M93 0a7 7 0 0 1 7 7v21a7 7 0 0 1-7 7H7a7 7 0 0 1-7-7V7a7 7 0 0 1 7-7h86zm-1 8H8v19h84V8z" fill="#2184FD" fill-rule="nonzero"/></g></svg>