<svg width="102" height="100" xmlns="http://www.w3.org/2000/svg"><g fill="#2184FD" fill-rule="evenodd"><path d="m50.619 0 50 44.274-6.352.007.003 46.195A9.524 9.524 0 0 1 84.746 100H18.079a9.524 9.524 0 0 1-9.523-9.524L8.552 44.43l-7.933.015L50.619 0zm.005 10.181L16.167 40.814l.008 49.662c0 .92.653 1.689 1.52 1.866l.384.039h66.667c.92 0 1.688-.653 1.866-1.52l.039-.384-.003-48.4L50.624 10.18z" fill-rule="nonzero"/><path d="m50.619 0-50 44.444 7.937 7.2L58.112 8.146z"/><path d="m50.97 0 50 44.444-7.937 7.2L43.476 8.146zM48.213 45.796v36.248L62.524 70.37l14.26 11.675V45.796z"/></g></svg>