<svg xmlns="http://www.w3.org/2000/svg" width="100" height="101"><g fill="none" fill-rule="evenodd" transform="translate(0 .201)"><circle cx="50" cy="50" r="50" fill="#FFF"/><path fill="#0664D8" d="M61.218 38.842a259.375 259.375 0 0 1 3.193 3.194 3.14 3.14 0 0 1 0 4.44c-2.7 2.716-5.412 5.418-8.119 8.126l-9.827 9.831-10.281 10.28c-1.171 1.172-2.338 2.349-3.517 3.512-.6.592-1.342.865-2.175.887-.853-.018-1.6-.295-2.205-.892a283.989 283.989 0 0 1-3.266-3.267c-1.168-1.191-1.183-3.156-.014-4.347 1.603-1.634 3.231-3.243 4.85-4.862l18.84-18.842c2.674-2.673 5.347-5.347 8.019-8.023 1.259-1.261 3.232-1.287 4.502-.037zm-1.48 2.245-7.082 7.07 2.429 2.436c2.365-2.359 4.74-4.727 7.077-7.06l-2.424-2.446zm-25.25-9.932c2.781-.27 5.18-1.351 7.147-3.325 1.963-1.969 3.038-4.362 3.307-7.14.277 2.775 1.349 5.18 3.323 7.15 1.971 1.968 4.37 3.05 7.152 3.315-2.783.272-5.184 1.348-7.156 3.32-1.97 1.971-3.044 4.373-3.317 7.152-.269-2.776-1.344-5.173-3.309-7.146-1.968-1.975-4.367-3.051-7.147-3.326m33.656 10.514c-.654-3.752-2.84-5.947-6.597-6.6 1.72-.2 3.215-.886 4.443-2.114 1.23-1.232 1.92-2.73 2.117-4.459.65 3.756 2.84 5.948 6.597 6.607-1.716.2-3.212.884-4.44 2.11-1.231 1.23-1.924 2.728-2.12 4.456m8.251 11.808c-3.334.619-5.276 2.564-5.876 5.884-.605-3.329-2.553-5.281-5.874-5.883 3.312-.598 5.26-2.547 5.87-5.859.62 3.299 2.553 5.25 5.88 5.858"/></g></svg>