<svg xmlns="http://www.w3.org/2000/svg" width="100" height="101"><g fill="none" fill-rule="evenodd" transform="translate(0 .201)"><circle cx="50" cy="50" r="50" fill="#FFF"/><path fill="#0664D8" fill-rule="nonzero" d="M41.804 24.138a5.864 5.864 0 0 1 5.864 5.864v11.802a5.864 5.864 0 0 1-5.864 5.864H30.002a5.864 5.864 0 0 1-5.864-5.864V30.002a5.864 5.864 0 0 1 5.864-5.864h11.802zm0 4.692H30.002c-.566 0-1.04.402-1.149.936l-.023.236v11.802c0 .567.402 1.04.936 1.149l.236.024h11.802c.567 0 1.04-.402 1.149-.937l.024-.236V30.002c0-.566-.402-1.04-.937-1.149l-.236-.023zm0 21.78a5.864 5.864 0 0 1 5.864 5.864v11.801a5.864 5.864 0 0 1-5.864 5.865H30.002a5.864 5.864 0 0 1-5.864-5.865V56.474a5.864 5.864 0 0 1 5.864-5.864h11.802zm0 4.691H30.002c-.566 0-1.04.402-1.149.937l-.023.236v11.801c0 .567.402 1.04.936 1.15l.236.023h11.802c.567 0 1.04-.402 1.149-.936l.024-.237V56.474c0-.567-.402-1.04-.937-1.15l-.236-.023zm26.471-31.163a5.864 5.864 0 0 1 5.865 5.864v11.802a5.864 5.864 0 0 1-5.865 5.864H56.474a5.864 5.864 0 0 1-5.864-5.864V30.002a5.864 5.864 0 0 1 5.864-5.864h11.801zm0 4.692H56.474c-.567 0-1.04.402-1.15.936l-.023.236v11.802c0 .567.402 1.04.937 1.149l.236.024h11.801c.567 0 1.04-.402 1.15-.937l.023-.236V30.002c0-.566-.402-1.04-.936-1.149l-.237-.023zm-5.083 21.78c6.65 0 12.08 5.228 12.403 11.799l.015.783c0 6.65-5.228 12.08-11.798 12.403l-.784.015c-6.65 0-12.08-5.228-12.403-11.798l-.015-.784c0-6.65 5.228-12.08 11.799-12.403l.783-.015zm0 4.691h-.164a7.728 7.728 0 0 0-7.712 7.239l-.015.488v.164a7.728 7.728 0 0 0 7.239 7.712l.488.015h.164a7.728 7.728 0 0 0 7.712-7.239l.015-.488v-.164a7.728 7.728 0 0 0-7.239-7.712l-.488-.015z"/></g></svg>