<svg xmlns="http://www.w3.org/2000/svg" width="100" height="101"><g fill="none" fill-rule="evenodd" transform="translate(0 .201)"><circle cx="50" cy="50" r="50" fill="#FFF"/><g transform="translate(24.138 25.862)"><path fill="#0664D8" fill-rule="nonzero" d="M45.517 12.931c2 0 3.62 1.549 3.62 3.46v30.15c0 1.91-1.62 3.459-3.62 3.459H6.207c-2 0-3.62-1.549-3.62-3.46V16.39c0-1.91 1.62-3.459 3.62-3.459h39.31zM45 17.069H6.724v28.793H45V17.07z"/><path fill="#0664D8" fill-rule="nonzero" d="M45.517 12.586c2.187 0 3.966 1.7 3.966 3.805v30.15c0 2.104-1.78 3.804-3.966 3.804H6.207c-2.187 0-3.966-1.7-3.966-3.805V16.39c0-2.104 1.78-3.804 3.966-3.804h39.31zm0 .69H6.207c-1.813 0-3.276 1.398-3.276 3.115v30.15c0 1.716 1.463 3.114 3.276 3.114h39.31c1.813 0 3.276-1.398 3.276-3.115V16.39c0-1.716-1.463-3.114-3.276-3.114zm-.172 3.448v29.483H6.379V16.724h38.966zm-.69.688H7.07v28.104h37.586V17.412z"/><rect width="23.511" height="6.466" x="14.107" y="23.276" fill="#0664D8" rx="3.233"/><rect width="51.724" height="18.103" fill="#FFF" rx="8.4"/><path fill="#0664D8" fill-rule="nonzero" d="M48.103 0c2 0 3.621 1.621 3.621 3.62v10.863c0 2-1.62 3.62-3.62 3.62H3.62c-2 0-3.621-1.62-3.621-3.62V3.62C0 1.62 1.621 0 3.62 0h44.483zm-.517 4.138H4.138v9.828h43.448V4.138z"/><path fill="#0664D8" fill-rule="nonzero" d="M48.103-.345a3.966 3.966 0 0 1 3.966 3.966v10.862a3.966 3.966 0 0 1-3.966 3.965H3.621a3.966 3.966 0 0 1-3.966-3.965V3.62A3.966 3.966 0 0 1 3.621-.345h44.482zm0 .69H3.621A3.276 3.276 0 0 0 .345 3.62v10.862a3.276 3.276 0 0 0 3.276 3.276h44.482a3.276 3.276 0 0 0 3.276-3.276V3.62A3.276 3.276 0 0 0 48.103.345zm-.172 3.448V14.31H3.793V3.793h44.138zm-.69.69H4.483v9.136H47.24V4.483z"/></g></g></svg>