<svg width="105" height="100" xmlns="http://www.w3.org/2000/svg"><path d="M78.88 99.021h.17l.11.013h.492l.142-.005.344-.026.134-.014.173-.025.413-.076.203-.049.166-.05.21-.054.265-.103.143-.053.201-.081.178-.083.154-.08-.003.004.167-.089.095-.054.207-.126.248-.163.123-.094.17-.11.212-.19.07-.057.085-.077.206-.195.084-.085.193-.208.168-.199.127-.164.202-.28.183-.27.078-.157.022-.035.095-.17.123-.25.078-.164.05-.115.049-.124.071-.195.06-.18.031-.104.074-.274.082-.355.03-.169.038-.291.034-.363.007-.17v-.429l-.008-.227-2.127-27.649 17.758-21.044.142-.182.051-.06.111-.149.08-.118.114-.179.04-.058.063-.098.074-.125.071-.132.185-.373.048-.105.095-.233.1-.283.142-.447.03-.177.05-.178.035-.264.011-.051.024-.18.036-.41.008-.176v-.55l-.034-.268-.004-.062-.02-.157-.026-.143-.006-.062-.031-.18-.062-.273-.057-.218-.059-.198-.032-.099-.05-.137-.108-.29-.047-.112-.061-.137-.154-.315-.072-.132-.074-.124-.097-.157-.12-.178-.108-.153-.214-.28-.12-.15-.126-.14-.296-.3-.089-.084-.105-.093-.257-.217-.108-.085-.11-.08-.172-.118-.148-.093-.183-.126-.49-.248-.164-.08-.175-.073-.095-.036-.192-.083-.269-.075-.055-.02-.216-.06-26.65-6.495L57.191 3.099l-.166-.263-.079-.116-.15-.202-.186-.227-.128-.148-.141-.153-.087-.087-.098-.094-.053-.055-.09-.085-.104-.093-.094-.078-.221-.175-.167-.123-.14-.093-.123-.075-.032-.024L54.99.92l-.246-.137-.315-.161-.15-.068-.123-.05-.119-.044-.224-.102-.32-.081-.033-.013-.15-.038-.258-.059-.22-.042-.157-.028-.169-.022-.283-.025-.455-.02-.098.006h-.05l-.226.009-.224.018-.368.046-.234.04-.343.077-.124.031-.13.037-.191.061-.136.05-.123.05-.076.026-.233.098-.156.07-.319.16-.133.073-.458.282-.427.334-.094.078-.104.093-.09.085-.054.055-.151.135-.266.305-.221.269-.092.122-.15.213-.091.14-.074.124-14.31 23.53-26.594 6.487-.193.052-.215.067-.172.046-.357.146-.22.099-.534.27-.464.304-.192.14-.135.11-.057.05-.065.052-.093.079-.105.093-.089.085-.197.199-.136.145-.132.15-.077.095-.173.224-.121.168-.122.187-.089.117-.138.254-.158.317-.093.203-.098.195-.089.282-.024.062-.032.099-.043.143-.036.136-.03.137-.018.056-.036.164-.052.295-.048.35-.023.238-.007.169v.423l.008.176.025.274.046.367.038.222.079.358.057.218.03.103.087.262.044.122.1.247.065.148.123.25.1.213.15.234.037.064.124.191.138.194.117.153.134.164 17.76 21.062-2.122 27.708-.007.168v.43l.007.169.026.287.026.219.04.233.048.22.007.054.037.165.037.137.066.215.06.177.058.16.06.158.077.179.061.124.022.052.079.17.12.226.059.102.148.237.067.101.16.224.083.108.092.112.045.06.117.139.092.1.247.25.09.085.209.187.153.13.148.113.05.035.155.116.147.1.248.156.074.044.139.077.109.055.08.037.092.048.114.053.16.068.492.19.275.073.1.031.203.05.333.061.253.039.14.015.172.012.198.024h.615l.16-.02.164-.009.153-.028.28-.032.154-.038.056-.01.215-.047.21-.056.123-.03.185-.067.1-.033.105-.037.2-.08 25.274-10.547 25.38 10.59.095.037.105.037.513.158.16.04.29.062.199.034.156.018z" fill="#FF8000" fill-rule="nonzero"/></svg>