<svg width="102" height="100" xmlns="http://www.w3.org/2000/svg"><path d="m50.825 0 .193.171.157-.171 50 44.444-6.703 3.182.004 42.85A9.524 9.524 0 0 1 84.952 100H18.285a9.524 9.524 0 0 1-9.524-9.524L8.758 48.21.825 44.444 50.825 0zM51 14.704 16.373 45.742l.007 44.734c0 .92.653 1.689 1.521 1.866l.384.039h66.667c.92 0 1.688-.653 1.866-1.52l.039-.384-.004-43.636L51 14.704zm6.183 18.654c6.505 0 9.928 1.54 9.928 1.54l-3.212 11.708s-4.407-1.842-9.514-1.842c-7.49 0-7.358 3.889-7.228 4.867.708 5.347 17.827 7.394 19.484 19.913 1.305 9.852-5.408 16.195-15.597 16.195-12.22 0-19.306-6.295-19.306-6.295l2.092-8.94s7.032 4.562 12.448 4.562c3.544 0 4.684-2.305 4.46-3.99-.923-6.975-14.79-7.285-16.306-18.743-1.276-9.643 5.856-18.975 22.75-18.975z" fill="#2184FD" fill-rule="nonzero"/></svg>