<svg width="101" height="100" xmlns="http://www.w3.org/2000/svg"><g fill="none" fill-rule="evenodd"><path d="M50.008 0c26.92 0 48.873 21.268 49.965 47.916h.043v12.5h-.142c-.97 7.068-6.806 12.5-13.86 12.5H66.01a4 4 0 0 0-3.995 3.801l-.005.2V87.5l-.142.001c-.878 6.386-5.728 11.437-11.86 12.351V100c-.437 0-.872-.006-1.306-.017a13.56 13.56 0 0 1-2.83-.152C20.19 97.73 0 76.222 0 50 0 22.386 22.39 0 50.008 0z"/><path d="M50.008 0c26.92 0 48.872 21.268 49.965 47.915l-.099 12.502c-.97 7.067-6.806 12.5-13.86 12.5h-15.67a8.334 8.334 0 0 0-8.306 7.65l-.028.562-.143 6.371v.005c-.879 6.384-5.727 11.433-11.857 12.347l-.002.148-1.397-.02-.603.02c-.705 0-1.397-.054-2.074-.159C20.221 97.764 0 76.243 0 50 0 22.386 22.39 0 50.008 0zm0 7.619C26.597 7.619 7.619 26.594 7.619 50c0 22.12 17.019 40.477 38.929 42.247l1.218.138.767-.018.353-.05c2.542-.38 4.683-2.447 5.315-5.203l.119-.648.07-.533.01-5.184.043-.799c.67-8.255 7.576-14.652 15.9-14.652h15.67c3.11 0 5.842-2.487 6.313-5.918l.064-.49-.03-10.662C91.45 25.993 73.434 8.274 51.246 7.637l-1.237-.018z" fill="#2184FD" fill-rule="nonzero"/><circle fill="#2184FD" cx="33.125" cy="67.131" r="9.121"/><circle fill="#2184FD" cx="24.004" cy="42.407" r="7.201"/><circle fill="#2184FD" cx="40.807" cy="27.204" r="7.201"/><circle fill="#2184FD" cx="62.81" cy="28.805" r="7.201"/></g></svg>