<svg xmlns="http://www.w3.org/2000/svg" width="100" height="101"><g fill="none" fill-rule="evenodd" transform="translate(0 .201)"><circle cx="50" cy="50" r="50" fill="#FFF"/><path fill="#0664D8" fill-rule="nonzero" d="M76.47 47.243h-3.86C71.507 36.58 62.868 27.94 52.206 26.838v-3.676c0-1.287-1.103-2.574-2.574-2.574-1.47 0-2.573 1.103-2.573 2.574v3.86c-10.662 1.103-19.302 9.743-20.405 20.405h-3.492c-1.287 0-2.574 1.102-2.574 2.573 0 1.47 1.103 2.574 2.574 2.574h3.86c1.103 10.661 9.743 19.301 20.405 20.404v3.86c0 1.287 1.102 2.574 2.573 2.574 1.47 0 2.574-1.103 2.574-2.574v-3.86c10.661-1.103 19.301-9.743 20.404-20.405h3.86c1.287 0 2.574-1.102 2.574-2.573 0-1.47-1.47-2.757-2.941-2.757zM52.39 67.647v-3.86c0-1.287-1.103-2.574-2.574-2.574-1.47 0-2.573 1.103-2.573 2.574v3.86c-7.905-1.103-14.338-7.353-15.441-15.441h3.86c1.287 0 2.573-1.103 2.573-2.574 0-1.47-1.103-2.573-2.573-2.573h-3.86c1.103-7.905 7.353-14.338 15.44-15.441v3.86c0 1.287 1.104 2.574 2.574 2.574 1.47 0 2.574-1.103 2.574-2.574v-3.86c7.904 1.103 14.338 7.353 15.44 15.44h-3.86c-1.286 0-2.573 1.104-2.573 2.574 0 1.47 1.103 2.574 2.574 2.574h3.86c-1.287 8.088-7.537 14.338-15.441 15.441z"/><circle cx="50" cy="50" r="6.897" fill="#0664D8"/></g></svg>