<svg width="100" height="100" xmlns="http://www.w3.org/2000/svg"><g fill="#2184FD" fill-rule="nonzero"><path d="M50 0c2.653 0 4.998 1.232 5.32 3.123l.037.448v4.643C71.786 10 86.071 21.43 91.071 37.857c.572 1.714.915 3.657 1.212 5.646L92.5 45h3.929c1.785 0 3.571 2.143 3.571 4.643 0 2.653-1.232 4.998-3.123 5.32l-.448.037H92.5c-1.786 15-11.071 28.214-25.714 34.286-3.125 1.562-6.524 2.578-9.956 3.047l-1.473.167v3.929c0 2.142-2.5 3.571-5.357 3.571-2.653 0-4.998-1.232-5.32-3.123l-.037-.448V92.5C25.767 90.403 10.655 75.648 7.677 56.605L7.5 55.357H3.571C1.43 55.357 0 52.857 0 50c0-2.653 1.232-4.998 3.123-5.32l.448-.037H7.5C9.643 26.786 23.214 11.786 41.429 8.214c.714 0 1.428-.158 2.142-.264l1.072-.093V3.571C44.643 1.43 47.143 0 50 0zm1.682 15.127-7.008.005-.947.16-.85.117-.55.046-.702.154c-13.946 3.246-24.56 14.731-26.738 28.697l-.166 1.203-.557 4.614.55 4.316c2.029 15.937 14.193 28.44 29.573 30.684l1.159.149 4.09.45 5.163-.465a25.17 25.17 0 0 0 7.66-1.93l1.641-.76c11.46-4.75 19.225-14.93 21.105-27.155l.173-1.272.536-4.508-.649-4.536-.24-1.564-.22-1.241c-.036-.185-.072-.361-.108-.53l-.227-.935-.256-.851c-3.963-13.02-15.081-22.45-28.298-24.372l-1.245-.159-2.89-.317z"/><path d="M50 9.09c22.593 0 40.91 18.317 40.91 40.91 0 22.593-18.317 40.91-40.91 40.91C27.407 90.91 9.09 72.592 9.09 50 9.09 27.407 27.408 9.09 50 9.09zm0 6.365C30.921 15.455 15.455 30.92 15.455 50S30.92 84.545 50 84.545 84.545 69.08 84.545 50 69.08 15.455 50 15.455z"/><path d="M50 27.273C37.49 27.273 27.273 37.49 27.273 50S37.49 72.727 50 72.727 72.727 62.51 72.727 50 62.51 27.273 50 27.273zm0 9.09c7.49 0 13.636 6.147 13.636 13.637S57.49 63.636 50 63.636c-7.49 0-13.636-6.146-13.636-13.636 0-7.49 6.146-13.636 13.636-13.636z"/></g></svg>